<svg width="22" height="20" viewBox="0 0 22 20" fill="none" xmlns="http://www.w3.org/2000/svg">
<path d="M21.9999 9.90015C21.9999 10.4539 21.6579 10.9115 21.2142 10.9839L21.0908 10.9939L2.90903 10.9939C2.40695 10.9939 1.99994 10.5042 1.99994 9.90015C1.99994 9.34642 2.34194 8.88881 2.78567 8.81638L2.90903 8.8064L21.0908 8.8064C21.5929 8.8064 21.9999 9.29608 21.9999 9.90015Z" fill="#626262"/>
<path d="M10.7923 17.9107C11.2204 18.3369 11.2218 19.0294 10.7956 19.4574C10.4082 19.8466 9.8006 19.8832 9.37174 19.5664L9.24884 19.4608L0.42592 10.6758C0.0356166 10.2872 0.000110496 9.6774 0.319419 9.24855L0.425856 9.12572L9.24877 0.33926C9.67679 -0.0869905 10.3693 -0.0855567 10.7956 0.342463C11.1831 0.731571 11.2171 1.33928 10.8985 1.7668L10.7924 1.88926L2.74815 9.90115L10.7923 17.9107Z" fill="#626262"/>
</svg>
