<svg width="22" height="20" viewBox="0 0 22 20" fill="none" xmlns="http://www.w3.org/2000/svg">
<path d="M9.16484e-05 10.0999C9.16968e-05 9.54613 0.342096 9.08851 0.785824 9.01609L0.909183 9.00611L19.091 9.00611C19.5931 9.00611 20.0001 9.4958 20.0001 10.0999C20.0001 10.6536 19.6581 11.1112 19.2144 11.1836L19.091 11.1936L0.909182 11.1936C0.407105 11.1936 9.15955e-05 10.7039 9.16484e-05 10.0999Z" fill="#626262"/>
<path d="M11.2077 2.08934C10.7797 1.66313 10.7782 0.970605 11.2044 0.542551C11.5919 0.15341 12.1994 0.116802 12.6283 0.433584L12.7512 0.53922L21.5741 9.32422C21.9644 9.71285 21.9999 10.3226 21.6806 10.7515L21.5742 10.8743L12.7513 19.6607C12.3232 20.087 11.6307 20.0856 11.2045 19.6575C10.817 19.2684 10.7829 18.6607 11.1015 18.2332L11.2077 18.1107L19.2519 10.0988L11.2077 2.08934Z" fill="#626262"/>
</svg>
