<svg width="114" height="96" viewBox="0 0 114 96" fill="none" xmlns="http://www.w3.org/2000/svg">
<path fill-rule="evenodd" clip-rule="evenodd" d="M113.862 84.5902C100.643 74.2033 82.4655 75.9082 67.2262 82.4132C75.4885 91.305 100.616 106.807 113.862 84.5902Z" fill="url(#paint0_linear_19_20)"/>
<path fill-rule="evenodd" clip-rule="evenodd" d="M56.9443 80.1836L56.9705 80.2098C76.3804 47.2393 90.7279 35.2262 56.9443 0C23.1345 35.2262 37.482 47.2393 56.9181 80.2361L56.9443 80.1836Z" fill="url(#paint1_linear_19_20)"/>
<path fill-rule="evenodd" clip-rule="evenodd" d="M92.4853 84.2229C114.282 75.1475 113.915 46.1115 112.734 44.0918C109.928 49.8623 101.98 54.1639 91.9869 55.5541C74.2033 58.0197 70.6886 66.8852 55.6591 73.2328C55.6591 73.2328 55.6853 73.3901 59.9345 77.6656C67.0164 84.7737 83.5935 87.9213 92.4853 84.2229Z" fill="url(#paint2_linear_19_20)"/>
<path fill-rule="evenodd" clip-rule="evenodd" d="M61.1409 73.4689C84.4327 75.5935 99.6983 44.6951 97.1016 20.7476C74.0721 22.6099 59.3573 52.9574 61.1409 73.4689Z" fill="url(#paint3_linear_19_20)"/>
<path fill-rule="evenodd" clip-rule="evenodd" d="M76.7213 31.1079C65.9934 42.1505 60.0131 59.7768 61.1148 73.2587C71.5803 56.2095 79.3705 44.8259 76.7213 31.1079Z" fill="#03585C"/>
<path fill-rule="evenodd" clip-rule="evenodd" d="M0 84.5898C13.2197 74.203 31.1082 74.6226 46.6361 82.4128C38.3738 91.3046 13.2459 106.806 0 84.5898Z" fill="url(#paint4_linear_19_20)"/>
<path fill-rule="evenodd" clip-rule="evenodd" d="M21.4032 84.2229C-0.393491 75.1475 -0.026278 46.1115 1.15405 44.0918C3.96061 49.8623 11.9081 54.1639 21.9016 55.5541C39.6852 58.0197 43.2 66.8852 58.2295 73.2328C58.2295 73.2328 58.2032 73.3901 53.9541 77.6656C46.8459 84.7737 30.2688 87.9213 21.4032 84.2229Z" fill="url(#paint5_linear_19_20)"/>
<path fill-rule="evenodd" clip-rule="evenodd" d="M52.7213 73.4689C29.4295 75.5935 14.1639 44.6951 16.7607 20.7476C39.7902 22.6099 54.5049 52.9574 52.7213 73.4689Z" fill="url(#paint6_linear_19_20)"/>
<path fill-rule="evenodd" clip-rule="evenodd" d="M52.7212 73.4687C40.7344 74.5704 30.8983 66.9113 24.4983 55.9736C37.9278 58.5179 42.6753 65.0228 52.8786 70.6359C52.8524 71.6064 52.7999 72.5507 52.7212 73.4687Z" fill="#03585C"/>
<path fill-rule="evenodd" clip-rule="evenodd" d="M89.3902 55.9736C75.9607 58.5179 71.2132 65.0228 61.0099 70.6359C61.0361 71.6064 61.0623 72.5507 61.141 73.4687C73.1279 74.5704 82.9902 66.9113 89.3902 55.9736Z" fill="#03585C"/>
<path fill-rule="evenodd" clip-rule="evenodd" d="M21.4033 84.2231C17.7836 82.728 14.7672 80.6559 12.2754 78.269C23.2131 75.0428 35.541 76.8526 46.636 82.4133C38.6098 85.9542 27.9344 86.951 21.4033 84.2231Z" fill="#03585C"/>
<path fill-rule="evenodd" clip-rule="evenodd" d="M37.1409 31.1079C34.4918 44.8259 42.3082 56.2095 52.7475 73.2587C53.8491 59.803 47.8688 42.1505 37.1409 31.1079Z" fill="#03585C"/>
<path fill-rule="evenodd" clip-rule="evenodd" d="M101.403 78.4526C90.4131 75.5935 78.0852 77.7706 67.2262 82.4132C75.2524 85.9542 85.9541 86.9247 92.4852 84.2231C96 82.7542 98.9377 80.7608 101.403 78.4526Z" fill="#03585C"/>
<path fill-rule="evenodd" clip-rule="evenodd" d="M78.2427 92.3015H31.3705C31.2132 92.1704 31.082 92.0654 30.8984 91.8818C29.6918 90.7015 28.7738 89.1015 29.0623 87.2655C29.2197 86.295 29.9541 85.6917 30.2427 85.2458C29.7443 85.2458 29.2984 85.5605 28.7738 85.6392L25.3115 86.1376C24.6295 86.2687 24.5509 86.6097 23.8164 86.6097C23.6591 86.3736 23.6066 86.3999 23.6066 85.9802C23.1345 85.9802 22.7672 85.8753 22.4787 85.9015C22.1902 85.9015 21.823 85.9802 21.3246 85.9802C21.3246 85.5605 21.3509 85.6392 21.2197 85.3507C20.6951 85.4032 20.0918 86.0589 19.9607 85.3507C19.8033 84.3277 21.7181 84.1179 22.4263 84.0917C23.1082 84.0655 23.5017 83.9081 24.0787 83.7769L23.3705 82.2818C22.9771 81.3114 23.8427 79.9999 23.9738 78.7671C24.0787 77.8491 23.9213 78.4261 24.2099 77.8753L24.4984 77.0359C25.4427 77.0359 25.4951 77.2458 26.282 78.19L27.7509 79.7638C28.1181 80.0261 28.7213 80.1048 29.1935 80.3146C30.2951 80.7868 30.164 81.7048 31.8689 81.0228C32.8656 80.6294 33.5476 79.9999 34.4656 79.5277C34.5443 79.4228 37.141 77.5605 38.741 75.9081C39.8164 74.8064 41.705 73.4425 41.9148 73.2064C42.282 72.8392 42.3869 72.3671 42.3607 71.6589C42.5443 71.2655 42.5181 69.954 42.5968 69.3769C42.6754 68.6687 42.7017 67.7769 42.7017 67.0687C42.8853 66.7015 42.8591 63.0294 42.7804 62.5048C42.6492 61.7966 42.6492 61.0097 42.5443 60.3015C42.4656 59.6458 42.2558 58.7802 42.2033 58.0982C42.1246 57.2064 42.4918 54.5573 42.7017 53.9015C42.8853 53.2982 43.1738 52.7999 43.4886 52.3278L44.564 50.9376C45.482 50.4917 44.7738 50.5704 46.6361 50.0458C48.8132 49.4425 50.1246 48.8917 52.1443 48.1048L53.3246 47.7376C53.7705 47.5278 53.6394 47.2392 53.6131 46.6097C53.5082 42.8851 53.4033 45.1146 52.8525 42.7015C52.6427 41.7835 52.6951 42.3081 52.1968 41.8622C51.9082 41.5999 51.9345 41.1015 51.8033 40.6819C51.7509 40.4982 51.6722 40.3146 51.6197 40.131C51.541 39.8163 51.5673 39.7638 51.4886 39.5278L51.2 38.531C51.2 38.5048 51.2 38.4786 51.2263 38.4786C51.3312 37.6655 51.882 38.7933 51.8558 37.3769L51.8033 35.6983C51.882 34.0458 51.6984 33.6786 52.223 32.3409C53.0099 30.4261 54.3738 29.3245 56.5771 29.1671C58.0984 29.0622 58.7541 29.272 59.7509 29.7442C60.5115 30.1376 61.3509 30.872 61.823 31.554C63.3968 33.8884 62.6361 35.0425 62.6886 38.0851C63.1082 38.0851 63.0295 38.0589 63.3181 38.1901C63.3443 38.8982 63.3181 38.8196 63.1082 39.3179C62.9509 39.7638 63.0295 40.3146 62.505 41.5737C62.2689 42.1769 61.9541 41.8097 61.6656 42.1769C61.5607 42.3081 61.482 43.1474 61.4295 43.3835C60.8787 45.5343 60.905 43.0687 60.9836 47.213L70.2951 49.9146L70.4263 49.9933C70.4787 50.0458 70.5836 50.0982 70.6099 50.1245C70.7673 50.2294 70.741 50.2032 70.8984 50.3605C71.1345 50.5704 71.2656 50.7278 71.423 50.99C71.764 51.5146 71.8951 51.9343 72.1312 52.59C72.5509 53.7966 72.7869 54.8982 72.9705 56.2884C73.023 56.7605 73.0492 57.9671 73.023 58.4392C72.9705 59.1474 72.9443 59.7769 72.9705 60.6163C72.9968 61.3769 72.9968 62.1376 73.023 62.8982C73.0492 63.79 73.1541 64.2884 73.1804 65.1015C73.2066 65.9409 73.259 66.9376 73.3902 67.7245C73.4689 68.1966 73.5213 68.6163 73.5738 69.0359C73.6263 69.5343 73.7574 69.8491 73.8099 70.295C73.9148 70.531 73.941 70.7409 74.0459 71.0032C74.5705 72.4196 75.1476 72.0523 76.564 73.5474C76.8 73.7835 76.8263 73.8884 77.0361 74.1245C79.082 76.3015 78.0853 75.672 80.6295 77.5605C80.9181 77.7704 81.5476 78.3212 81.8886 78.4261C83.0164 79.2655 84.8525 78.1638 85.6656 77.8228C86.7935 77.3507 87.5279 77.5343 88.7607 75.8556C89.4164 74.9638 90.5968 74.3081 90.8328 75.3048C90.9115 75.5933 90.7017 75.8294 90.6755 76.3015C90.6492 77.1933 90.7804 77.9277 90.8328 78.6884C91.0427 81.2064 90.964 79.7113 90.6755 80.8654C94.2951 80.0261 93.7968 82.0195 93.2459 81.9146C92.3804 81.731 92.9574 81.5736 91.1476 82.2294C90.8066 82.3605 90.4394 82.5179 90.0459 82.7015L88.8918 83.1999C88.1312 83.4884 88.4984 83.1999 87.764 83.6195C86.8984 84.0917 85.6656 82.7802 84.1705 82.6491C84.223 84.0655 85.2984 83.672 84.2754 86.7146C83.7246 88.3146 82.8066 89.8884 81.5738 90.8851C81.4164 91.0163 81.4164 91.0425 81.2328 91.1736C80.5509 91.672 80.0263 91.4884 79.2394 91.7507C78.8984 91.8818 78.6886 92.0392 78.4525 92.1966L78.2427 92.3015ZM24.8394 81.1015C24.8394 81.5474 25.0492 82.3868 25.1804 82.6491C25.8886 82.5966 26.2033 81.3376 26.1771 81.1015C26.1771 80.9179 25.8623 80.4195 25.7574 80.2359C25.5476 79.9212 25.4689 79.7376 25.1017 79.6327C24.9705 79.9736 24.8394 80.6032 24.8394 81.1015ZM88.2361 79.4228C88.2361 79.8425 88.4984 80.2884 88.682 80.5769C88.8918 80.4196 89.3377 79.5802 89.3902 79.4491C89.5213 79.0032 89.4689 78.1638 89.4427 77.5605C88.8918 77.7179 88.2099 78.8458 88.2361 79.4228ZM38.4263 82.1245C37.7968 82.3081 37.5082 82.5441 36.9574 82.7802C36.3017 83.0425 35.8295 82.9376 35.4886 83.4884L41.364 84.013C41.941 84.013 42.5968 84.1441 43.1738 84.2491C44.6164 84.4589 44.7476 84.4327 46.2164 84.4589C47.3705 84.4589 46.8722 84.2228 47.3705 82.4392C48.0787 79.9474 48.682 78.0851 48.6295 75.2523C48.9968 74.2556 48.8656 70.9507 48.6033 69.5081C48.5246 69.0884 48.5771 69.0622 48.2099 68.9573C48.0525 69.6917 47.9738 70.6359 47.8689 71.3704L47.423 73.8359C47.082 74.6491 46.9246 76.5114 46.3476 77.0359L41.3377 80.6818C40.4197 81.2589 39.0558 81.731 38.4263 82.1245ZM69.9017 84.1179C70.4263 83.9868 70.3476 83.8818 70.7148 83.5933C70.9509 83.4097 71.2394 83.2261 71.5279 83.0687C71.8689 82.8851 72.0263 82.7277 72.341 82.5441C73.1279 82.0982 74.5968 81.731 75.4886 81.5474C78.9246 80.8392 77.1672 81.2327 79.8427 81.2327C79.6066 80.9179 77.5345 80.2097 76.7738 79.895C76.3804 79.7376 76.1705 79.6064 75.7509 79.4491C74.8328 79.0818 72.8394 77.7966 72.0787 77.1409C71.3181 76.4851 70.2951 75.8818 69.823 74.99C69.6394 74.6491 69.5607 74.3081 69.4558 73.8884C69.2459 73.0491 69.0623 72.3933 68.8263 71.554C68.7213 71.1868 68.5902 70.7671 68.5377 70.3736C68.4328 69.8228 68.4591 69.5081 68.0918 69.2458C68.1181 70.7146 68.0132 71.8163 68.0656 73.3114C68.0918 73.9671 68.1968 74.4655 68.223 75.2786C68.223 75.8818 68.1968 76.7736 68.2754 77.3507C68.3541 77.9015 68.4591 78.6622 68.5115 79.2392C68.5115 79.9474 69.5869 83.6196 69.9017 84.1179Z" fill="white"/>
<defs>
<linearGradient id="paint0_linear_19_20" x1="89.7996" y1="91.0201" x2="90.8657" y2="80.3057" gradientUnits="userSpaceOnUse">
<stop stop-color="#005559"/>
<stop offset="1" stop-color="#62BB46"/>
</linearGradient>
<linearGradient id="paint1_linear_19_20" x1="56.935" y1="68.4391" x2="56.935" y2="-2.35858" gradientUnits="userSpaceOnUse">
<stop stop-color="#005559"/>
<stop offset="1" stop-color="#62BB46"/>
</linearGradient>
<linearGradient id="paint2_linear_19_20" x1="86.1749" y1="79.6768" x2="84.001" y2="55.5071" gradientUnits="userSpaceOnUse">
<stop stop-color="#005559"/>
<stop offset="1" stop-color="#62BB46"/>
</linearGradient>
<linearGradient id="paint3_linear_19_20" x1="71.045" y1="63.4473" x2="92.014" y2="25.6214" gradientUnits="userSpaceOnUse">
<stop stop-color="#005559"/>
<stop offset="1" stop-color="#62BB46"/>
</linearGradient>
<linearGradient id="paint4_linear_19_20" x1="24.0694" y1="91.0158" x2="23.0028" y2="80.2926" gradientUnits="userSpaceOnUse">
<stop stop-color="#005559"/>
<stop offset="1" stop-color="#62BB46"/>
</linearGradient>
<linearGradient id="paint5_linear_19_20" x1="27.696" y1="79.6767" x2="29.8693" y2="55.5065" gradientUnits="userSpaceOnUse">
<stop stop-color="#005559"/>
<stop offset="1" stop-color="#62BB46"/>
</linearGradient>
<linearGradient id="paint6_linear_19_20" x1="42.8251" y1="63.4474" x2="21.8563" y2="25.6213" gradientUnits="userSpaceOnUse">
<stop stop-color="#005559"/>
<stop offset="1" stop-color="#62BB46"/>
</linearGradient>
</defs>
</svg>
