<svg width="32" height="32" viewBox="0 0 32 32" fill="none" xmlns="http://www.w3.org/2000/svg">
<path d="M5.41288 0.713869C4.6522 0.879501 4.51111 0.989922 2.52965 2.97751C0.799711 4.70132 0.664751 4.85468 0.462312 5.2841C0.124912 5.9957 0.0451631 6.37605 0.00835589 7.38211C-0.0284513 8.39431 0.0512976 9.06297 0.358024 10.2285C2.20452 17.2403 10.4616 26.4666 18.3629 30.3437C20.7063 31.4908 22.4792 31.9939 24.2214 32C25.2888 32 25.8286 31.8896 26.5709 31.5276C27.0494 31.2945 27.1721 31.178 28.8959 29.4603C30.8221 27.5341 30.9325 27.393 31.1779 26.5771C31.3068 26.1477 31.3068 25.3379 31.1779 24.9085C30.9571 24.1723 30.8651 24.0619 28.4297 21.6142C27.1475 20.3198 25.9268 19.142 25.7243 18.9948C24.5097 18.1298 22.9454 18.2525 21.9271 19.2892C21.6203 19.6021 21.4976 19.7861 21.2891 20.283C21.1418 20.6143 20.9517 20.9885 20.8596 21.1112C20.2707 21.9087 19.142 22.4117 18.1789 22.3136C16.7434 22.1602 14.6024 20.8597 12.7866 19.0439C10.5904 16.8477 9.29604 14.3203 9.6089 12.848C9.75613 12.1609 10.2408 11.4432 10.8113 11.0628C10.9462 10.9647 11.2407 10.8113 11.4615 10.7193C12.0995 10.4494 12.2529 10.3574 12.5535 10.0997C13.5718 9.2102 13.7927 7.54161 13.0504 6.35764C12.8357 6.00797 8.60284 1.7322 8.08754 1.33346C7.67653 1.0206 7.13669 0.775213 6.65206 0.689329C6.19197 0.603447 5.88524 0.609581 5.41288 0.713869Z" fill="white"/>
</svg>
